<svg width="239" height="33" viewBox="0 0 239 33" fill="none" xmlns="http://www.w3.org/2000/svg">
<path d="M13.92 3.48L23.68 28.64C24.08 29.6533 24.5333 30.3333 25.04 30.68C25.5467 31 26.0133 31.1733 26.44 31.2V32C25.9067 31.9467 25.2533 31.92 24.48 31.92C23.7067 31.8933 22.9333 31.88 22.16 31.88C21.12 31.88 20.1467 31.8933 19.24 31.92C18.3333 31.92 17.6 31.9467 17.04 32V31.2C18.4 31.1467 19.2667 30.92 19.64 30.52C20.0133 30.0933 19.9333 29.2 19.4 27.84L11.96 7.96L12.6 7.44L5.64 25.52C5.21333 26.5867 4.96 27.4933 4.88 28.24C4.8 28.96 4.86667 29.5333 5.08 29.96C5.32 30.3867 5.70667 30.6933 6.24 30.88C6.8 31.0667 7.49333 31.1733 8.32 31.2V32C7.57333 31.9467 6.78667 31.92 5.96 31.92C5.16 31.8933 4.41333 31.88 3.72 31.88C3.05333 31.88 2.48 31.8933 2 31.92C1.54667 31.92 1.12 31.9467 0.72 32V31.2C1.25333 31.0667 1.8 30.76 2.36 30.28C2.92 29.7733 3.42667 28.92 3.88 27.72L13.28 3.48C13.3867 3.48 13.4933 3.48 13.6 3.48C13.7067 3.48 13.8133 3.48 13.92 3.48ZM18.8 20.48V21.28H6.88L7.28 20.48H18.8ZM30.3153 1.4C31.0086 1.4 31.6086 1.65333 32.1153 2.16C32.622 2.66666 32.8753 3.26666 32.8753 3.96C32.8753 4.65333 32.622 5.25333 32.1153 5.76C31.6086 6.26667 31.0086 6.52 30.3153 6.52C29.622 6.52 29.022 6.26667 28.5153 5.76C28.0086 5.25333 27.7553 4.65333 27.7553 3.96C27.7553 3.26666 28.0086 2.66666 28.5153 2.16C29.022 1.65333 29.622 1.4 30.3153 1.4ZM32.3953 10.96V28.28C32.3953 29.4 32.622 30.16 33.0753 30.56C33.5553 30.96 34.342 31.16 35.4353 31.16V32C34.982 31.9733 34.2886 31.9467 33.3553 31.92C32.4486 31.8667 31.5286 31.84 30.5953 31.84C29.6886 31.84 28.7686 31.8667 27.8353 31.92C26.902 31.9467 26.2086 31.9733 25.7553 32V31.16C26.8486 31.16 27.622 30.96 28.0753 30.56C28.5553 30.16 28.7953 29.4 28.7953 28.28V15.76C28.7953 14.56 28.582 13.68 28.1553 13.12C27.7286 12.5333 26.9286 12.24 25.7553 12.24V11.4C26.6086 11.48 27.4353 11.52 28.2353 11.52C29.0086 11.52 29.742 11.48 30.4353 11.4C31.1553 11.2933 31.8086 11.1467 32.3953 10.96ZM47.7541 10.84C49.9407 10.84 51.7541 11.7467 53.1941 13.56C54.6341 15.3467 55.3541 18.0667 55.3541 21.72C55.3541 24.12 54.9407 26.1333 54.1141 27.76C53.3141 29.36 52.2341 30.56 50.8741 31.36C49.5141 32.16 48.0341 32.56 46.4341 32.56C45.1007 32.56 43.8074 32.1867 42.5541 31.44C41.3274 30.6667 40.4074 29.5333 39.7941 28.04L40.5941 28.48C41.2607 29.5467 42.0874 30.3467 43.0741 30.88C44.0607 31.3867 45.0741 31.64 46.1141 31.64C47.9007 31.64 49.2341 30.84 50.1141 29.24C51.0207 27.6133 51.4741 25.1067 51.4741 21.72C51.4741 19.56 51.3007 17.76 50.9541 16.32C50.6074 14.88 50.0741 13.8133 49.3541 13.12C48.6341 12.4 47.7141 12.04 46.5941 12.04C45.3674 12.04 44.2207 12.6 43.1541 13.72C42.1141 14.8133 41.4741 16.4267 41.2341 18.56L40.7541 18C41.0474 15.7333 41.8341 13.9733 43.1141 12.72C44.4207 11.4667 45.9674 10.84 47.7541 10.84ZM41.5141 0.679998V29.92C41.1674 30.2133 40.8074 30.52 40.4341 30.84C40.0874 31.1333 39.7407 31.4267 39.3941 31.72C39.0474 32.0133 38.6874 32.32 38.3141 32.64L37.6341 32.36C37.7407 31.9867 37.8074 31.6133 37.8341 31.24C37.8874 30.84 37.9141 30.44 37.9141 30.04V5.48C37.9141 4.28 37.7007 3.4 37.2741 2.84C36.8474 2.25333 36.0474 1.96 34.8741 1.96V1.12C35.7274 1.2 36.5541 1.24 37.3541 1.24C38.1274 1.24 38.8607 1.2 39.5541 1.12C40.2741 1.01333 40.9274 0.866665 41.5141 0.679998ZM66.5331 10.84C68.8798 10.84 70.7065 11.56 72.0131 13C73.3465 14.4133 74.0131 16.6267 74.0131 19.64H59.8931L59.8531 18.88H70.1731C70.2265 17.5733 70.1198 16.3733 69.8531 15.28C69.5865 14.16 69.1598 13.2667 68.5731 12.6C68.0131 11.9333 67.2798 11.6 66.3731 11.6C65.1465 11.6 64.0531 12.2133 63.0931 13.44C62.1598 14.6667 61.5998 16.6133 61.4131 19.28L61.5331 19.44C61.4798 19.84 61.4398 20.28 61.4131 20.76C61.3865 21.24 61.3731 21.72 61.3731 22.2C61.3731 24.0133 61.6665 25.5733 62.2531 26.88C62.8398 28.1867 63.5998 29.1867 64.5331 29.88C65.4931 30.5467 66.4798 30.88 67.4931 30.88C68.2931 30.88 69.0531 30.76 69.7731 30.52C70.4931 30.2533 71.1598 29.8267 71.7731 29.24C72.3865 28.6533 72.9198 27.8667 73.3731 26.88L74.1731 27.2C73.8798 28.08 73.3998 28.9333 72.7331 29.76C72.0665 30.5867 71.2265 31.2667 70.2131 31.8C69.1998 32.3067 68.0265 32.56 66.6931 32.56C64.7731 32.56 63.1198 32.12 61.7331 31.24C60.3731 30.36 59.3198 29.1467 58.5731 27.6C57.8531 26.0267 57.4931 24.2267 57.4931 22.2C57.4931 19.8533 57.8665 17.84 58.6131 16.16C59.3598 14.4533 60.4131 13.1467 61.7731 12.24C63.1331 11.3067 64.7198 10.84 66.5331 10.84ZM81.7275 0.639998V28.28C81.7275 29.4 81.9275 30.16 82.3275 30.56C82.7275 30.96 83.4075 31.16 84.3675 31.16V32C83.9408 31.9733 83.3008 31.9467 82.4475 31.92C81.6208 31.8667 80.7808 31.84 79.9275 31.84C79.0208 31.84 78.1008 31.8667 77.1675 31.92C76.2342 31.9467 75.5408 31.9733 75.0875 32V31.16C76.1808 31.16 76.9542 30.96 77.4075 30.56C77.8875 30.16 78.1275 29.4 78.1275 28.28V5.44C78.1275 4.24 77.9142 3.36 77.4875 2.8C77.0608 2.21333 76.2608 1.92 75.0875 1.92V1.08C75.9408 1.16 76.7675 1.2 77.5675 1.2C78.3408 1.2 79.0742 1.16 79.7675 1.08C80.4875 0.973332 81.1408 0.826666 81.7275 0.639998ZM94.4475 11.4V12.2C93.7808 12.2533 93.1542 12.44 92.5675 12.76C91.9808 13.0533 91.4075 13.4933 90.8475 14.08L85.2075 20L85.7675 18.88L93.2075 29.08C93.6608 29.6933 94.0875 30.1733 94.4875 30.52C94.9142 30.8667 95.4208 31.08 96.0075 31.16V32C95.7142 31.9733 95.2475 31.9467 94.6075 31.92C93.9942 31.8667 93.3808 31.84 92.7675 31.84C91.9408 31.84 91.1008 31.8667 90.2475 31.92C89.3942 31.9467 88.7542 31.9733 88.3275 32V31.16C88.8608 31.16 89.2342 31.0267 89.4475 30.76C89.6608 30.4933 89.6208 30.1733 89.3275 29.8L84.7275 23.08C84.2208 22.36 83.7542 21.8933 83.3275 21.68C82.9275 21.4667 82.3408 21.3467 81.5675 21.32V20.52C82.4208 20.4133 83.1142 20.24 83.6475 20C84.1808 19.7333 84.6875 19.3467 85.1675 18.84L88.1275 15.76C88.9808 14.88 89.4075 14.1867 89.4075 13.68C89.4075 13.1467 89.1275 12.7733 88.5675 12.56C88.0342 12.32 87.3275 12.2 86.4475 12.2V11.4C87.1408 11.4267 87.9142 11.4667 88.7675 11.52C89.6475 11.5467 90.3808 11.56 90.9675 11.56C91.4208 11.56 91.8608 11.56 92.2875 11.56C92.7142 11.5333 93.1142 11.5067 93.4875 11.48C93.8608 11.4533 94.1808 11.4267 94.4475 11.4ZM104.507 10.84C106.214 10.84 107.747 11.2133 109.107 11.96C110.467 12.7067 111.547 13.88 112.347 15.48C113.174 17.08 113.587 19.16 113.587 21.72C113.587 24.28 113.174 26.36 112.347 27.96C111.547 29.5333 110.467 30.6933 109.107 31.44C107.747 32.1867 106.214 32.56 104.507 32.56C102.827 32.56 101.294 32.1867 99.9069 31.44C98.5469 30.6933 97.4535 29.5333 96.6269 27.96C95.8269 26.36 95.4269 24.28 95.4269 21.72C95.4269 19.16 95.8269 17.08 96.6269 15.48C97.4535 13.88 98.5469 12.7067 99.9069 11.96C101.294 11.2133 102.827 10.84 104.507 10.84ZM104.507 11.64C102.987 11.64 101.734 12.4267 100.747 14C99.7869 15.5733 99.3069 18.1467 99.3069 21.72C99.3069 25.2933 99.7869 27.8667 100.747 29.44C101.734 30.9867 102.987 31.76 104.507 31.76C106.027 31.76 107.267 30.9867 108.227 29.44C109.214 27.8667 109.707 25.2933 109.707 21.72C109.707 18.1467 109.214 15.5733 108.227 14C107.267 12.4267 106.027 11.64 104.507 11.64ZM125.981 2.32C127.394 2.32 128.648 2.65333 129.741 3.32C130.861 3.98667 131.608 4.96 131.981 6.24L131.421 6.56C131.128 5.57333 130.528 4.74667 129.621 4.08C128.741 3.38667 127.581 3.04 126.141 3.04C124.621 3.04 123.501 3.54667 122.781 4.56C122.061 5.54666 121.701 7.16 121.701 9.4V11.44H127.741V12.24H121.701V28.28C121.701 29.4 121.928 30.16 122.381 30.56C122.861 30.96 123.648 31.16 124.741 31.16V32C124.288 31.9733 123.608 31.9467 122.701 31.92C121.794 31.8667 120.874 31.84 119.941 31.84C119.034 31.84 118.101 31.8667 117.141 31.92C116.208 31.9467 115.514 31.9733 115.061 32V31.16C116.154 31.16 116.928 30.96 117.381 30.56C117.861 30.16 118.101 29.4 118.101 28.28V12.24H114.901V11.44H118.101C118.101 9.94667 118.248 8.66667 118.541 7.6C118.834 6.53333 119.288 5.64 119.901 4.92C120.568 4.14667 121.421 3.52 122.461 3.04C123.528 2.56 124.701 2.32 125.981 2.32ZM137.741 0.719997C138.488 0.719997 139.141 0.826664 139.701 1.04C140.288 1.22667 140.794 1.48 141.221 1.8C141.621 2.12 141.928 2.49333 142.141 2.92C142.354 3.34667 142.461 3.8 142.461 4.28C142.461 4.89333 142.261 5.4 141.861 5.8C141.461 6.2 140.954 6.4 140.341 6.4C139.754 6.4 139.234 6.21333 138.781 5.84C138.354 5.44 138.141 4.90667 138.141 4.24C138.141 3.68 138.288 3.22667 138.581 2.88C138.901 2.53333 139.314 2.30666 139.821 2.2C139.741 1.96 139.528 1.76 139.181 1.6C138.861 1.41333 138.421 1.32 137.861 1.32C137.248 1.32 136.714 1.45333 136.261 1.72C135.834 1.98667 135.501 2.34667 135.261 2.8C134.941 3.36 134.741 4.2 134.661 5.32C134.581 6.41333 134.541 8.10667 134.541 10.4V11.44H138.821V12.24H134.541V27.88C134.541 29.1867 134.914 30.0667 135.661 30.52C136.434 30.9467 137.474 31.16 138.781 31.16V32C138.168 31.9733 137.301 31.9467 136.181 31.92C135.061 31.8667 133.874 31.84 132.621 31.84C131.714 31.84 130.808 31.8667 129.901 31.92C129.021 31.9467 128.354 31.9733 127.901 32V31.16C128.994 31.16 129.768 30.96 130.221 30.56C130.701 30.16 130.941 29.4 130.941 28.28V12.24H127.741V11.44H130.941C130.941 9.86667 131.008 8.54667 131.141 7.48C131.274 6.41333 131.488 5.50666 131.781 4.76C132.074 3.98666 132.474 3.30666 132.981 2.72C133.514 2.10666 134.194 1.62667 135.021 1.28C135.848 0.906665 136.754 0.719997 137.741 0.719997ZM158.752 3.68V4.48C157.845 4.50667 157.152 4.61333 156.672 4.8C156.219 4.96 155.912 5.28 155.752 5.76C155.592 6.21333 155.512 6.93333 155.512 7.92V27.76C155.512 28.72 155.592 29.44 155.752 29.92C155.912 30.4 156.219 30.72 156.672 30.88C157.152 31.04 157.845 31.1467 158.752 31.2V32C158.139 31.9467 157.365 31.92 156.432 31.92C155.525 31.8933 154.605 31.88 153.672 31.88C152.632 31.88 151.659 31.8933 150.752 31.92C149.845 31.92 149.112 31.9467 148.552 32V31.2C149.459 31.1467 150.139 31.04 150.592 30.88C151.072 30.72 151.392 30.4 151.552 29.92C151.712 29.44 151.792 28.72 151.792 27.76V7.92C151.792 6.93333 151.712 6.21333 151.552 5.76C151.392 5.28 151.072 4.96 150.592 4.8C150.139 4.61333 149.459 4.50667 148.552 4.48V3.68C149.112 3.70667 149.845 3.73333 150.752 3.76C151.659 3.78667 152.632 3.8 153.672 3.8C154.605 3.8 155.525 3.78667 156.432 3.76C157.365 3.73333 158.139 3.70667 158.752 3.68ZM166.951 10.84C168.018 10.84 168.925 11.0133 169.671 11.36C170.418 11.7067 170.965 12.0267 171.311 12.32C172.191 13.04 172.725 12.56 172.911 10.88H173.831C173.778 11.6267 173.738 12.52 173.711 13.56C173.685 14.5733 173.671 15.9467 173.671 17.68H172.751C172.591 16.6933 172.311 15.7333 171.911 14.8C171.538 13.8667 170.978 13.1067 170.231 12.52C169.485 11.9067 168.511 11.6 167.311 11.6C166.378 11.6 165.591 11.8667 164.951 12.4C164.338 12.9067 164.031 13.6667 164.031 14.68C164.031 15.48 164.271 16.1733 164.751 16.76C165.231 17.32 165.858 17.8533 166.631 18.36C167.405 18.84 168.245 19.3733 169.151 19.96C170.165 20.6 171.085 21.2533 171.911 21.92C172.738 22.5867 173.391 23.32 173.871 24.12C174.378 24.92 174.631 25.8667 174.631 26.96C174.631 28.1867 174.311 29.2133 173.671 30.04C173.031 30.8667 172.191 31.4933 171.151 31.92C170.138 32.3467 169.018 32.56 167.791 32.56C167.205 32.56 166.645 32.5067 166.111 32.4C165.605 32.32 165.111 32.1867 164.631 32C164.365 31.8667 164.085 31.7067 163.791 31.52C163.525 31.3333 163.258 31.1333 162.991 30.92C162.725 30.7067 162.485 30.72 162.271 30.96C162.058 31.1733 161.898 31.6133 161.791 32.28H160.871C160.925 31.4267 160.965 30.3867 160.991 29.16C161.018 27.9333 161.031 26.3067 161.031 24.28H161.951C162.138 25.7733 162.405 27.08 162.751 28.2C163.098 29.32 163.645 30.2 164.391 30.84C165.138 31.4533 166.178 31.76 167.511 31.76C168.045 31.76 168.578 31.64 169.111 31.4C169.671 31.16 170.138 30.76 170.511 30.2C170.885 29.64 171.071 28.8933 171.071 27.96C171.071 26.7867 170.645 25.8267 169.791 25.08C168.938 24.3333 167.858 23.5467 166.551 22.72C165.591 22.1067 164.685 21.4933 163.831 20.88C163.005 20.2667 162.325 19.5733 161.791 18.8C161.285 18.0267 161.031 17.0933 161.031 16C161.031 14.8 161.298 13.8267 161.831 13.08C162.391 12.3067 163.125 11.7467 164.031 11.4C164.938 11.0267 165.911 10.84 166.951 10.84ZM182.442 0.639998V28.28C182.442 29.4 182.669 30.16 183.122 30.56C183.602 30.96 184.389 31.16 185.482 31.16V32C185.029 31.9733 184.335 31.9467 183.402 31.92C182.495 31.8667 181.575 31.84 180.642 31.84C179.735 31.84 178.815 31.8667 177.882 31.92C176.949 31.9467 176.255 31.9733 175.802 32V31.16C176.895 31.16 177.669 30.96 178.122 30.56C178.602 30.16 178.842 29.4 178.842 28.28V5.44C178.842 4.24 178.629 3.36 178.202 2.8C177.775 2.21333 176.975 1.92 175.802 1.92V1.08C176.655 1.16 177.482 1.2 178.282 1.2C179.055 1.2 179.789 1.16 180.482 1.08C181.202 0.973332 181.855 0.826666 182.442 0.639998ZM191.607 32.28C190.514 32.28 189.567 32.08 188.767 31.68C187.967 31.2533 187.354 30.6667 186.927 29.92C186.527 29.1733 186.327 28.3067 186.327 27.32C186.327 26.1467 186.594 25.1867 187.127 24.44C187.687 23.6933 188.394 23.0933 189.247 22.64C190.101 22.1867 190.994 21.8133 191.927 21.52C192.887 21.2 193.794 20.9067 194.647 20.64C195.501 20.3467 196.194 20.0133 196.727 19.64C197.287 19.2667 197.567 18.7733 197.567 18.16V15.68C197.567 14.56 197.394 13.7067 197.047 13.12C196.727 12.5333 196.287 12.1467 195.727 11.96C195.167 11.7467 194.541 11.64 193.847 11.64C193.181 11.64 192.461 11.7333 191.687 11.92C190.941 12.1067 190.341 12.4933 189.887 13.08C190.394 13.1867 190.834 13.4533 191.207 13.88C191.581 14.3067 191.767 14.8533 191.767 15.52C191.767 16.1867 191.554 16.72 191.127 17.12C190.701 17.4933 190.154 17.68 189.487 17.68C188.714 17.68 188.141 17.44 187.767 16.96C187.421 16.4533 187.247 15.8933 187.247 15.28C187.247 14.5867 187.421 14.0267 187.767 13.6C188.114 13.1733 188.554 12.7733 189.087 12.4C189.701 11.9733 190.487 11.6133 191.447 11.32C192.434 11 193.541 10.84 194.767 10.84C195.861 10.84 196.794 10.9733 197.567 11.24C198.341 11.48 198.981 11.84 199.487 12.32C200.181 12.96 200.634 13.7467 200.847 14.68C201.061 15.5867 201.167 16.68 201.167 17.96V29.08C201.167 29.7467 201.261 30.2267 201.447 30.52C201.661 30.8133 201.981 30.96 202.407 30.96C202.701 30.96 202.981 30.8933 203.247 30.76C203.514 30.6267 203.834 30.4133 204.207 30.12L204.647 30.8C204.087 31.2267 203.554 31.5867 203.047 31.88C202.541 32.1467 201.861 32.28 201.007 32.28C200.234 32.28 199.594 32.1467 199.087 31.88C198.581 31.6133 198.194 31.2267 197.927 30.72C197.687 30.1867 197.567 29.52 197.567 28.72C196.847 29.92 195.981 30.8133 194.967 31.4C193.981 31.9867 192.861 32.28 191.607 32.28ZM193.047 30.68C193.927 30.68 194.741 30.4267 195.487 29.92C196.261 29.4133 196.954 28.6533 197.567 27.64V19.8C197.247 20.2533 196.781 20.64 196.167 20.96C195.554 21.2533 194.887 21.56 194.167 21.88C193.447 22.1733 192.754 22.5333 192.087 22.96C191.447 23.36 190.914 23.8933 190.487 24.56C190.061 25.2267 189.847 26.0933 189.847 27.16C189.847 28.2267 190.127 29.08 190.687 29.72C191.274 30.36 192.061 30.68 193.047 30.68ZM217.449 10.84C218.382 10.84 219.196 10.9733 219.889 11.24C220.582 11.5067 221.156 11.88 221.609 12.36C222.116 12.8933 222.462 13.5867 222.649 14.44C222.836 15.2933 222.929 16.3467 222.929 17.6V28.28C222.929 29.4 223.156 30.16 223.609 30.56C224.089 30.96 224.876 31.16 225.969 31.16V32C225.516 31.9733 224.822 31.9467 223.889 31.92C222.956 31.8667 222.049 31.84 221.169 31.84C220.289 31.84 219.422 31.8667 218.569 31.92C217.742 31.9467 217.116 31.9733 216.689 32V31.16C217.649 31.16 218.329 30.96 218.729 30.56C219.129 30.16 219.329 29.4 219.329 28.28V16.72C219.329 15.8933 219.276 15.1333 219.169 14.44C219.062 13.7467 218.796 13.1867 218.369 12.76C217.942 12.3333 217.249 12.12 216.289 12.12C215.249 12.12 214.316 12.44 213.489 13.08C212.689 13.72 212.049 14.6 211.569 15.72C211.116 16.8133 210.889 18.04 210.889 19.4V28.28C210.889 29.4 211.089 30.16 211.489 30.56C211.889 30.96 212.569 31.16 213.529 31.16V32C213.102 31.9733 212.462 31.9467 211.609 31.92C210.782 31.8667 209.929 31.84 209.049 31.84C208.169 31.84 207.262 31.8667 206.329 31.92C205.396 31.9467 204.702 31.9733 204.249 32V31.16C205.342 31.16 206.116 30.96 206.569 30.56C207.049 30.16 207.289 29.4 207.289 28.28V15.76C207.289 14.56 207.076 13.68 206.649 13.12C206.222 12.5333 205.422 12.24 204.249 12.24V11.4C205.102 11.48 205.929 11.52 206.729 11.52C207.502 11.52 208.236 11.48 208.929 11.4C209.649 11.2933 210.302 11.1467 210.889 10.96V15.68C211.582 13.9467 212.529 12.7067 213.729 11.96C214.929 11.2133 216.169 10.84 217.449 10.84ZM229.489 10.84C230.422 10.84 231.236 10.9733 231.929 11.24C232.622 11.5067 233.196 11.88 233.649 12.36C234.156 12.8933 234.502 13.5867 234.689 14.44C234.876 15.2933 234.969 16.3467 234.969 17.6V28.28C234.969 29.4 235.196 30.16 235.649 30.56C236.129 30.96 236.916 31.16 238.009 31.16V32C237.556 31.9733 236.862 31.9467 235.929 31.92C234.996 31.8667 234.089 31.84 233.209 31.84C232.329 31.84 231.462 31.8667 230.609 31.92C229.782 31.9467 229.156 31.9733 228.729 32V31.16C229.689 31.16 230.369 30.96 230.769 30.56C231.169 30.16 231.369 29.4 231.369 28.28V16.72C231.369 15.8933 231.316 15.1333 231.209 14.44C231.102 13.7467 230.836 13.1867 230.409 12.76C229.982 12.3333 229.289 12.12 228.329 12.12C227.289 12.12 226.356 12.44 225.529 13.08C224.729 13.72 224.089 14.5867 223.609 15.68C223.156 16.7733 222.929 18 222.929 19.36L222.809 15.64C223.529 13.8 224.502 12.5467 225.729 11.88C226.956 11.1867 228.209 10.84 229.489 10.84Z" fill="white"/>
<path d="M143.434 27.44C144.127 27.44 144.727 27.6933 145.234 28.2C145.74 28.7067 145.994 29.3067 145.994 30C145.994 30.6933 145.74 31.2933 145.234 31.8C144.727 32.3067 144.127 32.56 143.434 32.56C142.74 32.56 142.14 32.3067 141.634 31.8C141.127 31.2933 140.874 30.6933 140.874 30C140.874 29.3067 141.127 28.7067 141.634 28.2C142.14 27.6933 142.74 27.44 143.434 27.44Z" fill="#1ED291"/>
</svg>
