<svg width="36" height="36" viewBox="0 0 36 36" fill="none" xmlns="http://www.w3.org/2000/svg">
<g clip-path="url(#clip0_212_2630)">
<path d="M11.1645 8.02502C12.123 8.02502 13.0095 8.10002 13.8195 8.32202C14.5545 8.45709 15.2561 8.73427 15.885 9.13802C16.476 9.50852 16.9185 10.029 17.2125 10.6965C17.508 11.364 17.655 12.1815 17.655 13.071C17.655 14.1105 17.4345 15 16.9185 15.6675C16.476 16.3365 15.738 16.929 14.853 17.3745C16.107 17.7465 17.0655 18.414 17.655 19.3035C18.246 20.1945 18.615 21.3075 18.615 22.569C18.615 23.6085 18.393 24.498 18.024 25.2405C17.655 25.983 17.0655 26.6505 16.401 27.096C15.6792 27.5736 14.8813 27.9246 14.0415 28.134C13.1565 28.3575 12.2715 28.506 11.3865 28.506H1.5V8.02502H11.1645ZM10.5735 16.335C11.385 16.335 12.0495 16.113 12.5655 15.7425C13.0815 15.372 13.3035 14.703 13.3035 13.887C13.3035 13.4415 13.2285 12.996 13.0815 12.7005C12.9345 12.4035 12.7125 12.18 12.4185 11.958C12.123 11.8095 11.8275 11.661 11.4585 11.5875C11.0895 11.5125 10.722 11.5125 10.278 11.5125H6V16.3365H10.575L10.5735 16.335ZM10.7955 25.092C11.238 25.092 11.6805 25.017 12.0495 24.9435C12.4221 24.8727 12.7744 24.7206 13.0815 24.498C13.3821 24.2809 13.6335 24.0028 13.8195 23.682C13.9665 23.3115 14.115 22.866 14.115 22.347C14.115 21.3075 13.8195 20.565 13.23 20.046C12.639 19.6005 11.8275 19.3785 10.869 19.3785H6V25.0935H10.7955V25.092ZM25.0335 25.017C25.623 25.611 26.508 25.908 27.6885 25.908C28.5 25.908 29.238 25.686 29.8275 25.3155C30.4185 24.87 30.7875 24.4245 30.9345 23.979H34.5495C33.9585 25.7595 33.0735 27.021 31.8945 27.837C30.7125 28.5795 29.3115 29.025 27.615 29.025C26.5296 29.0283 25.4532 28.8268 24.4425 28.431C23.5331 28.0898 22.722 27.5292 22.0815 26.799C21.3964 26.1159 20.8901 25.2746 20.607 24.3495C20.238 23.385 20.0895 22.347 20.0895 21.159C20.0895 20.046 20.238 19.008 20.607 18.042C20.9618 17.1122 21.4867 16.2566 22.155 15.519C22.8195 14.8515 23.631 14.259 24.516 13.887C25.5011 13.4911 26.5534 13.2894 27.615 13.293C28.869 13.293 29.976 13.5165 30.9345 14.0355C31.8945 14.5545 32.631 15.1485 33.222 16.0395C33.8249 16.8953 34.2741 17.8496 34.5495 18.8595C34.6965 19.8975 34.77 20.937 34.6965 22.1235H24C24 23.3115 24.4425 24.4245 25.0335 25.0185V25.017ZM29.6805 17.226C29.1645 16.707 28.353 16.41 27.393 16.41C26.73 16.41 26.2125 16.5585 25.77 16.7805C25.3275 17.004 25.0335 17.301 24.738 17.598C24.4665 17.8849 24.2868 18.2464 24.222 18.636C24.147 19.008 24.0735 19.3035 24.0735 19.6005H30.7125C30.5655 18.4875 30.1965 17.7465 29.6805 17.226ZM23.1885 9.43502H31.4505V11.439H23.19V9.43502H23.1885Z" fill="white"/>
</g>
<defs>
<clipPath id="clip0_212_2630">
<rect width="36" height="36" fill="white"/>
</clipPath>
</defs>
</svg>
