<svg width="252" height="252" viewBox="0 0 252 252" fill="none" xmlns="http://www.w3.org/2000/svg">
<path d="M104.533 230.482C103.422 230.245 102.623 229.752 102.138 229.003C101.645 228.26 101.52 227.319 101.763 226.178C102.007 225.038 102.507 224.226 103.262 223.743C104.009 223.265 104.939 223.145 106.05 223.382L108.557 223.918L107.04 231.018L104.533 230.482ZM105.841 224.361C105.088 224.2 104.467 224.3 103.977 224.66C103.479 225.026 103.143 225.618 102.968 226.436C102.793 227.253 102.859 227.927 103.166 228.458C103.464 228.994 103.989 229.342 104.742 229.503L106.098 229.793L107.196 224.651L105.841 224.361Z" fill="#00754B"/>
<path d="M96.0673 220.763L93.6693 227.616L88.7064 225.879L89.0407 224.924L92.8926 226.272L93.583 224.299L90.572 223.245L90.899 222.311L93.91 223.364L94.6221 221.329L90.6248 219.931L90.9591 218.975L96.0673 220.763Z" fill="#00754B"/>
<path d="M79.4884 221.941C78.9044 221.649 78.4547 221.286 78.1395 220.85C77.821 220.42 77.6205 219.919 77.538 219.345L78.5855 219.019C78.645 219.524 78.7913 219.937 79.0245 220.259C79.2478 220.583 79.5727 220.852 79.9992 221.065C80.3142 221.222 80.5947 221.308 80.8407 221.324C81.0866 221.341 81.2949 221.301 81.4653 221.206C81.6259 221.114 81.7504 220.979 81.8388 220.802C81.9403 220.599 81.9598 220.387 81.8973 220.168C81.8282 219.945 81.6214 219.694 81.2768 219.415L80.1051 218.462C79.5439 218.01 79.2024 217.577 79.0807 217.164C78.959 216.751 79.0062 216.328 79.2223 215.895C79.4219 215.495 79.7037 215.201 80.0676 215.014C80.4315 214.826 80.8463 214.751 81.312 214.786C81.7712 214.819 82.2599 214.964 82.7783 215.223C83.2377 215.452 83.6216 215.717 83.9302 216.019C84.2387 216.32 84.4801 216.641 84.6542 216.982C84.8283 217.323 84.9385 217.669 84.9847 218.02L83.8929 218.385C83.8697 218.086 83.799 217.793 83.6806 217.505C83.559 217.223 83.385 216.964 83.1585 216.728C82.9254 216.489 82.6383 216.284 82.297 216.114C81.9952 215.963 81.718 215.87 81.4654 215.834C81.2063 215.795 80.9866 215.816 80.8063 215.898C80.6161 215.984 80.472 216.125 80.3738 216.322C80.2788 216.512 80.261 216.712 80.3202 216.922C80.3728 217.129 80.5534 217.358 80.8619 217.61L82.1271 218.647C82.4783 218.929 82.7426 219.212 82.9199 219.498C83.0973 219.783 83.1926 220.068 83.206 220.353C83.2161 220.645 83.1508 220.932 83.01 221.214C82.8267 221.582 82.5629 221.864 82.2187 222.061C81.8647 222.262 81.4532 222.355 80.9842 222.343C80.512 222.337 80.0134 222.203 79.4884 221.941Z" fill="#00754B"/>
<path d="M68.7598 215.709L72.7003 209.611L73.6889 210.25L69.7483 216.348L68.7598 215.709Z" fill="#00754B"/>
<path d="M64.1561 203.236C64.6843 203.668 65.0465 204.157 65.2426 204.706C65.4387 205.254 65.4708 205.829 65.3388 206.431C65.2021 207.039 64.8857 207.647 64.3894 208.255C63.9024 208.852 63.3719 209.275 62.7979 209.526C62.2182 209.772 61.6287 209.845 61.0296 209.744C60.4201 209.644 59.8484 209.376 59.3145 208.94C58.7294 208.462 58.3461 207.969 58.1644 207.461C57.9771 206.948 57.9611 206.377 58.1163 205.746L59.2868 206.034C59.1396 206.435 59.1284 206.814 59.2531 207.171C59.3675 207.53 59.6008 207.853 59.953 208.14C60.3051 208.428 60.682 208.598 61.0835 208.652C61.4793 208.7 61.8809 208.626 62.2883 208.428C62.6911 208.236 63.0733 207.919 63.4351 207.476C63.8015 207.027 64.0493 206.59 64.1783 206.166C64.3028 205.747 64.3016 205.348 64.1748 204.97C64.0423 204.587 63.783 204.238 63.3967 203.923C63.1865 203.751 62.9697 203.617 62.7462 203.519C62.518 203.428 62.2941 203.377 62.0742 203.368C61.8498 203.365 61.6357 203.413 61.432 203.511C61.218 203.611 61.0205 203.772 60.8396 203.993L60.7074 204.155L62.3434 205.491L61.7381 206.232L59.2927 204.236L61.6581 201.339L62.3398 201.895L61.4656 203.07L61.3648 202.846C61.7933 202.599 62.2478 202.507 62.7282 202.567C63.203 202.624 63.6789 202.847 64.1561 203.236Z" fill="#00754B"/>
<path d="M47.3157 197.296L52.6284 192.348L53.5805 193.37L52.1436 198.542L51.6816 199.934L51.6891 199.942L52.5204 199.108L55.9496 195.914L56.6842 196.703L51.3715 201.651L50.4269 200.637L51.8633 195.481L52.3339 194.065L52.3264 194.057L51.487 194.899L48.0579 198.093L47.3157 197.296Z" fill="#00754B"/>
<path d="M35.7903 181.545L42.006 177.794L42.6141 178.802L36.3985 182.553L35.7903 181.545Z" fill="#00754B"/>
<path d="M30.5286 171.879C30.2553 171.286 30.1321 170.721 30.1589 170.184C30.1791 169.65 30.3365 169.133 30.6312 168.634L31.6521 169.035C31.3825 169.466 31.2382 169.88 31.2191 170.277C31.1903 170.67 31.2757 171.082 31.4752 171.515C31.6226 171.835 31.7872 172.078 31.969 172.245C32.1507 172.411 32.3379 172.51 32.5305 172.543C32.7133 172.572 32.8946 172.544 33.0744 172.462C33.2809 172.366 33.4284 172.214 33.5171 172.003C33.6027 171.786 33.5983 171.461 33.5037 171.028L33.1862 169.551C33.0312 168.848 33.0355 168.296 33.1991 167.898C33.3626 167.5 33.6642 167.199 34.1037 166.996C34.5099 166.809 34.9135 166.756 35.3145 166.838C35.7156 166.919 36.0866 167.12 36.4275 167.439C36.7655 167.752 37.0557 168.171 37.2983 168.697C37.5132 169.163 37.6467 169.61 37.6988 170.039C37.7509 170.467 37.7382 170.868 37.6607 171.243C37.5832 171.618 37.4528 171.957 37.2693 172.26L36.1892 171.861C36.3578 171.614 36.4862 171.341 36.5745 171.042C36.656 170.746 36.6822 170.435 36.6532 170.109C36.621 169.777 36.5251 169.437 36.3655 169.091C36.2242 168.785 36.0663 168.538 35.8917 168.352C35.7141 168.16 35.5292 168.039 35.3372 167.99C35.1354 167.938 34.9346 167.958 34.7348 168.05C34.5417 168.139 34.4026 168.284 34.3175 168.485C34.2293 168.679 34.2266 168.971 34.3095 169.361L34.6477 170.961C34.7453 171.4 34.7741 171.787 34.734 172.12C34.694 172.454 34.5899 172.736 34.4218 172.967C34.247 173.201 34.0165 173.384 33.7301 173.516C33.3572 173.688 32.9748 173.743 32.583 173.681C32.1815 173.616 31.8018 173.432 31.4439 173.129C31.0793 172.828 30.7742 172.412 30.5286 171.879Z" fill="#00754B"/>
<path d="M29.551 149.66L28.6964 145.748L29.6851 145.532L30.7909 150.594L23.6982 152.143L23.447 150.993L29.551 149.66Z" fill="#00754B"/>
<path d="M21.3506 138.501L28.5674 137.711L28.6956 138.881L21.4788 139.671L21.3506 138.501Z" fill="#00754B"/>
<path d="M21.7541 124.776L21.7672 128.846L23.8792 128.839L23.8689 125.649L24.8809 125.646L24.8912 128.836L28.0152 128.826L28.0189 130.003L20.759 130.026L20.7421 124.779L21.7541 124.776Z" fill="#00754B"/>
<path d="M28.4072 118.122L21.1976 117.268L21.8159 112.046L22.8209 112.165L22.341 116.218L24.4165 116.464L24.7916 113.296L25.7747 113.412L25.3996 116.58L27.5407 116.834L28.0387 112.628L29.0437 112.747L28.4072 118.122Z" fill="#00754B"/>
<path d="M34.413 88.3976C34.5113 88.1685 34.6568 88.0155 34.8494 87.9386C35.0382 87.852 35.2438 87.8564 35.4662 87.9519C35.6886 88.0473 35.8368 88.1947 35.9108 88.3941C35.9877 88.5867 35.977 88.7976 35.8787 89.0267C35.7775 89.2626 35.6291 89.4223 35.4336 89.506C35.241 89.5829 35.0335 89.5737 34.8111 89.4782C34.5887 89.3828 34.4424 89.2402 34.3722 89.0505C34.2982 88.8511 34.3118 88.6335 34.413 88.3976Z" fill="#00754B"/>
<path d="M45.1883 59.7537C45.9188 58.8829 46.7283 58.4086 47.6168 58.3308C48.5044 58.2426 49.3949 58.5732 50.2881 59.3226C51.1814 60.072 51.6646 60.8938 51.7377 61.7879C51.8099 62.6717 51.4808 63.549 50.7502 64.4198L49.103 66.3833L43.541 61.7173L45.1883 59.7537ZM49.9834 63.7764C50.4782 63.1865 50.6811 62.591 50.592 61.9898C50.502 61.3782 50.1368 60.8038 49.4963 60.2665C48.8559 59.7292 48.2295 59.4717 47.6172 59.4941C47.0041 59.5062 46.45 59.8072 45.9551 60.3971L45.0644 61.4589L49.0926 64.8383L49.9834 63.7764Z" fill="#00754B"/>
<path d="M57.7407 56.8268L52.8099 51.4982L56.6691 47.927L57.3564 48.6698L54.3611 51.4415L55.7806 52.9755L58.122 50.809L58.7943 51.5356L56.453 53.7022L57.9173 55.2846L61.0257 52.4083L61.713 53.1511L57.7407 56.8268Z" fill="#00754B"/>
<path d="M64.4665 41.628C64.9975 41.2485 65.5294 41.0216 66.0622 40.9473C66.5907 40.867 67.1278 40.9248 67.6734 41.1207L67.4704 42.1987C66.9964 42.0147 66.5628 41.9505 66.1699 42.006C65.7786 42.0513 65.389 42.2125 65.0012 42.4897C64.7149 42.6944 64.5069 42.9016 64.3774 43.1113C64.2479 43.3211 64.1853 43.5235 64.1896 43.7188C64.1956 43.9037 64.2562 44.0768 64.3713 44.2379C64.5035 44.4228 64.6813 44.5391 64.9046 44.5868C65.134 44.6302 65.4523 44.5649 65.8598 44.3909L67.2509 43.8023C67.9132 43.5183 68.4553 43.4192 68.8773 43.5052C69.2993 43.5912 69.6511 43.8311 69.9325 44.2248C70.1926 44.5888 70.3201 44.9754 70.3151 45.3845C70.3101 45.7937 70.1828 46.1957 69.9331 46.5905C69.6894 46.981 69.3319 47.3447 68.8606 47.6815C68.4429 47.98 68.0287 48.195 67.6178 48.3263C67.207 48.4577 66.8102 48.5205 66.4274 48.5146C66.0446 48.5088 65.6874 48.4441 65.3558 48.3206L65.5447 47.185C65.8192 47.3043 66.1117 47.3792 66.422 47.4098C66.728 47.4345 67.0383 47.402 67.3529 47.3124C67.6734 47.2185 67.9887 47.0607 68.299 46.839C68.5734 46.6429 68.7856 46.4416 68.9356 46.2353C69.0916 46.0247 69.1755 45.8205 69.1874 45.6227C69.2009 45.4147 69.1438 45.2212 69.0159 45.0422C68.8922 44.8692 68.7238 44.7597 68.5107 44.7137C68.3035 44.6635 68.0162 44.7155 67.6489 44.8699L66.1401 45.502C65.7267 45.6803 65.3525 45.781 65.0175 45.8041C64.6825 45.8272 64.3858 45.7779 64.1275 45.656C63.8649 45.5282 63.6419 45.3361 63.4585 45.0795C63.2197 44.7454 63.0939 44.3802 63.081 43.9838C63.0698 43.5771 63.1797 43.1696 63.4106 42.7612C63.6372 42.3468 63.9892 41.9691 64.4665 41.628Z" fill="#00754B"/>
<path d="M74.9982 35.0685L78.5394 41.4063L77.5119 41.9804L73.9707 35.6426L74.9982 35.0685Z" fill="#00754B"/>
<path d="M88.174 36.8436C87.5454 37.1083 86.943 37.1988 86.3668 37.1152C85.7905 37.0317 85.2672 36.7905 84.797 36.3917C84.3238 35.9862 83.935 35.4219 83.6305 34.6987C83.3317 33.9891 83.2059 33.3219 83.2532 32.6973C83.3073 32.0698 83.5193 31.5151 83.8892 31.033C84.2631 30.5414 84.7676 30.1619 85.4029 29.8944C86.0991 29.6012 86.7141 29.4934 87.2481 29.571C87.7887 29.6456 88.3013 29.8993 88.7858 30.3318L87.9828 31.2309C87.6979 30.9133 87.3683 30.7258 86.9941 30.6685C86.6238 30.6017 86.2291 30.6565 85.8101 30.8329C85.3911 31.0094 85.064 31.2625 84.8289 31.5922C84.6005 31.9191 84.4781 32.3088 84.4618 32.7613C84.4426 33.207 84.544 33.6934 84.766 34.2206C84.9908 34.7545 85.2606 35.178 85.5754 35.4911C85.8874 35.7973 86.2401 35.983 86.6335 36.0481C87.0337 36.1103 87.4636 36.0447 87.9232 35.8512C88.1733 35.7459 88.3936 35.6173 88.5843 35.4654C88.7721 35.3067 88.9215 35.1324 89.0325 34.9424C89.1406 34.7457 89.1988 34.5343 89.2069 34.308C89.219 34.0722 89.1696 33.8225 89.0586 33.5589L88.9775 33.3663L87.031 34.1859L86.6596 33.3039L89.5692 32.0787L91.0206 35.5256L90.2096 35.8671L89.581 34.5444L89.8264 34.5604C89.8435 35.0545 89.7126 35.4995 89.4337 35.8954C89.1616 36.2885 88.7417 36.6046 88.174 36.8436Z" fill="#00754B"/>
<path d="M101.311 24.7478L103.194 31.7594L101.845 32.1217L97.9489 28.4297L96.9353 27.3693L96.9246 27.3722L97.2724 28.4975L98.4876 33.0232L97.4465 33.3027L95.5637 26.2911L96.9023 25.9317L100.785 29.6159L101.815 30.6947L101.825 30.6919L101.475 29.5559L100.259 25.0302L101.311 24.7478Z" fill="#00754B"/>
<path d="M120.625 21.9435L121.028 29.1923L119.853 29.2576L119.45 22.0088L120.625 21.9435Z" fill="#00754B"/>
<path d="M131.63 21.823C132.282 21.8592 132.839 22.015 133.301 22.2904C133.764 22.5585 134.146 22.9396 134.449 23.4339L133.617 24.1478C133.362 23.7076 133.064 23.3863 132.723 23.1837C132.389 22.9742 131.984 22.8562 131.508 22.8298C131.157 22.8103 130.865 22.8418 130.633 22.9244C130.401 23.007 130.225 23.1257 130.106 23.2807C129.995 23.4288 129.934 23.6017 129.923 23.7994C129.911 24.0264 129.976 24.2283 130.121 24.4053C130.273 24.5826 130.562 24.7309 130.989 24.8501L132.442 25.2613C133.136 25.4541 133.621 25.7161 133.897 26.0472C134.172 26.3783 134.296 26.7855 134.269 27.2688C134.245 27.7154 134.102 28.0968 133.842 28.4128C133.582 28.7289 133.232 28.9628 132.79 29.1145C132.355 29.2667 131.849 29.3267 131.27 29.2946C130.758 29.2661 130.3 29.1746 129.898 29.02C129.495 28.8654 129.146 28.6661 128.851 28.422C128.556 28.178 128.318 27.904 128.137 27.6001L128.995 26.8325C129.134 27.0973 129.315 27.3388 129.538 27.5568C129.761 27.7675 130.024 27.9363 130.325 28.0632C130.634 28.1906 130.979 28.2648 131.36 28.2859C131.696 28.3047 131.988 28.2804 132.234 28.2133C132.487 28.1466 132.681 28.0398 132.814 27.893C132.954 27.7392 133.031 27.5525 133.043 27.3329C133.055 27.1205 132.992 26.9297 132.854 26.7605C132.724 26.5917 132.468 26.4526 132.084 26.3432L130.512 25.8923C130.078 25.7727 129.723 25.6171 129.447 25.4255C129.171 25.2339 128.971 25.0097 128.846 24.7531C128.721 24.4891 128.667 24.1996 128.685 23.8848C128.707 23.4748 128.838 23.1111 129.076 22.7938C129.321 22.4696 129.662 22.2205 130.098 22.0463C130.534 21.8649 131.045 21.7905 131.63 21.823Z" fill="#00754B"/>
<path d="M151.719 31.3674L155.575 32.4448L155.303 33.4194L150.313 32.0254L152.267 25.0331L153.4 25.3498L151.719 31.3674Z" fill="#00754B"/>
<path d="M165.419 29.3494L162.737 36.0959L161.643 35.6611L164.325 28.9146L165.419 29.3494Z" fill="#00754B"/>
<path d="M177.356 36.1357L173.754 34.2407L172.771 36.1098L175.594 37.595L175.123 38.4907L172.3 37.0054L170.845 39.7701L169.804 39.2221L173.184 32.797L177.827 35.24L177.356 36.1357Z" fill="#00754B"/>
<path d="M180.119 45.1306L184.25 39.1608L188.574 42.1531L187.998 42.9852L184.642 40.6628L183.453 42.3814L186.076 44.1967L185.512 45.0108L182.889 43.1954L181.662 44.9683L185.145 47.3783L184.569 48.2105L180.119 45.1306Z" fill="#00754B"/>
<path d="M203.566 64.3606C203.723 64.5548 203.79 64.755 203.767 64.9612C203.755 65.1685 203.655 65.3481 203.467 65.4999C203.278 65.6516 203.079 65.7135 202.868 65.6855C202.661 65.6633 202.48 65.555 202.324 65.3608C202.163 65.1609 202.091 64.955 202.109 64.743C202.131 64.5368 202.237 64.3578 202.425 64.2061C202.614 64.0543 202.808 63.9918 203.009 64.0187C203.219 64.0467 203.405 64.1606 203.566 64.3606Z" fill="#00754B"/>
<path d="M223.826 87.2983C224.253 88.3517 224.293 89.2891 223.945 90.1105C223.607 90.936 222.898 91.5678 221.818 92.006C220.737 92.4442 219.785 92.4861 218.96 92.1319C218.146 91.7817 217.525 91.0799 217.098 90.0265L216.135 87.6514L222.863 84.9232L223.826 87.2983ZM218.025 89.6504C218.315 90.3639 218.746 90.8222 219.319 91.0251C219.901 91.232 220.58 91.1784 221.355 90.8643C222.129 90.5501 222.65 90.1173 222.917 89.5659C223.194 89.0185 223.187 88.388 222.898 87.6745L222.377 86.3901L217.505 88.366L218.025 89.6504Z" fill="#00754B"/>
<path d="M220.531 99.7595L227.549 97.8992L228.896 102.982L227.918 103.241L226.872 99.2963L224.852 99.8318L225.67 102.915L224.713 103.169L223.895 100.085L221.811 100.638L222.896 104.732L221.918 104.991L220.531 99.7595Z" fill="#00754B"/>
<path d="M230.809 112.821C230.896 113.468 230.847 114.045 230.663 114.55C230.486 115.055 230.184 115.502 229.755 115.892L228.898 115.208C229.282 114.875 229.542 114.522 229.677 114.149C229.82 113.782 229.86 113.363 229.797 112.89C229.75 112.541 229.665 112.261 229.54 112.048C229.416 111.835 229.266 111.685 229.091 111.597C228.925 111.516 228.744 111.488 228.548 111.515C228.322 111.545 228.136 111.647 227.99 111.822C227.844 112.005 227.752 112.317 227.715 112.758L227.584 114.263C227.524 114.981 227.358 115.506 227.084 115.839C226.811 116.172 226.434 116.37 225.954 116.434C225.511 116.493 225.11 116.425 224.75 116.229C224.391 116.033 224.096 115.732 223.864 115.327C223.633 114.928 223.479 114.442 223.402 113.868C223.334 113.359 223.338 112.892 223.415 112.468C223.491 112.043 223.622 111.663 223.806 111.328C223.991 110.992 224.215 110.707 224.48 110.472L225.394 111.171C225.16 111.358 224.957 111.581 224.785 111.841C224.62 112.099 224.503 112.389 224.435 112.709C224.368 113.036 224.359 113.388 224.41 113.766C224.454 114.101 224.533 114.382 224.645 114.612C224.758 114.848 224.899 115.018 225.068 115.121C225.246 115.23 225.443 115.271 225.661 115.241C225.872 115.213 226.048 115.116 226.188 114.949C226.33 114.789 226.418 114.511 226.454 114.114L226.602 112.485C226.638 112.037 226.725 111.659 226.861 111.352C226.998 111.045 227.18 110.806 227.409 110.635C227.645 110.463 227.919 110.356 228.232 110.314C228.639 110.26 229.02 110.32 229.377 110.494C229.741 110.674 230.05 110.962 230.302 111.358C230.562 111.752 230.731 112.24 230.809 112.821Z" fill="#00754B"/>
<path d="M231.671 125.199L224.413 125.358L224.387 124.182L231.645 124.022L231.671 125.199Z" fill="#00754B"/>
<path d="M223.93 136.008C223.991 135.329 224.193 134.754 224.537 134.284C224.881 133.814 225.339 133.465 225.912 133.236C226.491 133.008 227.172 132.929 227.954 132.999C228.721 133.067 229.369 133.269 229.899 133.603C230.428 133.945 230.819 134.392 231.071 134.944C231.33 135.505 231.429 136.129 231.368 136.815C231.301 137.568 231.108 138.161 230.79 138.597C230.47 139.04 230.006 139.374 229.397 139.599L228.979 138.468C229.393 138.365 229.713 138.162 229.939 137.858C230.171 137.562 230.308 137.188 230.348 136.735C230.389 136.282 230.318 135.875 230.137 135.513C229.955 135.158 229.668 134.867 229.276 134.641C228.891 134.415 228.414 134.277 227.844 134.226C227.267 134.174 226.767 134.214 226.343 134.346C225.926 134.478 225.597 134.703 225.355 135.02C225.112 135.344 224.969 135.755 224.925 136.251C224.901 136.522 224.911 136.777 224.956 137.016C225.008 137.256 225.092 137.47 225.208 137.657C225.331 137.845 225.491 137.995 225.687 138.108C225.889 138.23 226.133 138.303 226.418 138.328L226.626 138.347L226.814 136.243L227.767 136.328L227.487 139.473L223.761 139.14L223.84 138.264L225.303 138.328L225.174 138.538C224.729 138.321 224.397 137.997 224.178 137.565C223.958 137.141 223.876 136.622 223.93 136.008Z" fill="#00754B"/>
<path d="M228.463 153.281L221.386 151.66L221.698 150.298L226.785 148.586L228.197 148.187L228.199 148.176L227.042 147.956L222.474 146.91L222.715 145.859L229.792 147.48L229.482 148.831L224.409 150.535L222.973 150.94L222.971 150.951L224.139 151.173L228.706 152.219L228.463 153.281Z" fill="#00754B"/>
<path d="M221.893 171.659L215.3 168.619L215.793 167.55L222.386 170.59L221.893 171.659Z" fill="#00754B"/>
<path d="M216.845 181.438C216.507 181.997 216.109 182.416 215.649 182.695C215.196 182.978 214.679 183.138 214.101 183.174L213.86 182.104C214.368 182.085 214.792 181.972 215.131 181.766C215.472 181.569 215.766 181.267 216.012 180.859C216.194 180.557 216.303 180.285 216.339 180.041C216.375 179.797 216.352 179.586 216.271 179.408C216.192 179.241 216.068 179.106 215.898 179.004C215.704 178.886 215.494 178.85 215.27 178.895C215.042 178.946 214.776 179.132 214.471 179.453L213.427 180.544C212.931 181.067 212.472 181.373 212.051 181.461C211.629 181.55 211.211 181.469 210.797 181.219C210.414 180.987 210.144 180.683 209.986 180.305C209.829 179.928 209.787 179.508 209.859 179.047C209.929 178.592 210.113 178.116 210.412 177.62C210.677 177.18 210.973 176.819 211.298 176.536C211.623 176.252 211.962 176.037 212.316 175.891C212.67 175.745 213.024 175.663 213.377 175.645L213.653 176.762C213.354 176.762 213.056 176.809 212.759 176.904C212.468 177.002 212.196 177.155 211.943 177.362C211.686 177.575 211.459 177.845 211.261 178.171C211.087 178.46 210.972 178.729 210.916 178.978C210.856 179.233 210.86 179.454 210.928 179.64C210.997 179.836 211.127 179.991 211.315 180.105C211.497 180.215 211.695 180.249 211.909 180.206C212.119 180.171 212.362 180.009 212.638 179.722L213.773 178.544C214.082 178.216 214.386 177.976 214.684 177.822C214.983 177.668 215.275 177.595 215.56 177.605C215.852 177.618 216.133 177.707 216.403 177.869C216.755 178.082 217.015 178.367 217.184 178.726C217.355 179.095 217.415 179.513 217.365 179.979C217.321 180.449 217.148 180.936 216.845 181.438Z" fill="#00754B"/>
<path d="M199.002 194.715L196.243 197.618L195.51 196.92L199.079 193.165L204.342 198.166L203.531 199.019L199.002 194.715Z" fill="#00754B"/>
<path d="M194.367 207.764L189.663 202.234L190.559 201.472L195.264 207.001L194.367 207.764Z" fill="#00754B"/>
<path d="M182.78 215.132L186.141 212.837L184.95 211.093L182.316 212.891L181.745 212.056L184.38 210.257L182.619 207.677L183.591 207.013L187.684 213.01L183.35 215.968L182.78 215.132Z" fill="#00754B"/>
<path d="M173.538 213.359L176.877 219.805L172.208 222.224L171.743 221.325L175.367 219.448L174.406 217.592L171.573 219.059L171.118 218.18L173.95 216.713L172.959 214.799L169.198 216.746L168.733 215.848L173.538 213.359Z" fill="#00754B"/>
<path d="M145.565 225.067C145.32 225.114 145.112 225.079 144.94 224.963C144.763 224.855 144.651 224.683 144.605 224.445C144.559 224.207 144.598 224.002 144.722 223.829C144.838 223.657 145.019 223.548 145.263 223.5C145.515 223.452 145.731 223.485 145.91 223.6C146.082 223.716 146.19 223.893 146.236 224.131C146.282 224.368 146.246 224.57 146.128 224.734C146.005 224.907 145.817 225.018 145.565 225.067Z" fill="#00754B"/>
</svg>
