<svg width="36" height="36" viewBox="0 0 36 36" fill="none" xmlns="http://www.w3.org/2000/svg">
<g clip-path="url(#clip0_212_2054)">
<path d="M29.9835 17.358C29.8605 14.9969 29.0393 12.7254 27.624 10.8315C27.1928 11.2959 26.7318 11.7319 26.244 12.1365C24.7454 13.3813 23.0707 14.3973 21.2745 15.1515C21.525 15.6765 21.7545 16.185 21.957 16.665V16.6695C22.0141 16.8036 22.0691 16.9386 22.122 17.0745C24.393 16.8195 26.787 16.9125 29.1075 17.226C29.4165 17.268 29.7075 17.313 29.9835 17.358ZM15.906 6.183C17.3678 8.24276 18.7158 10.381 19.944 12.588C21.7785 11.865 23.295 10.953 24.516 9.9375C24.9398 9.5882 25.3388 9.20978 25.71 8.805C23.5515 6.98957 20.8205 5.996 18 6C17.2981 5.99952 16.5974 6.06025 15.906 6.1815V6.183ZM6.3795 14.9955C7.40134 14.9697 8.42196 14.9082 9.4395 14.811C11.899 14.591 14.3374 14.1788 16.7325 13.578C15.4808 11.4033 14.1293 9.28757 12.6825 7.2375C11.1371 8.0031 9.77439 9.09211 8.68687 10.4307C7.59934 11.7693 6.81243 13.3261 6.3795 14.9955ZM8.6745 25.5525C9.2565 24.702 10.0215 23.745 11.037 22.704C13.218 20.469 15.792 18.729 18.771 17.769L18.864 17.742C18.6165 17.196 18.384 16.7085 18.15 16.2495C15.396 17.052 12.495 17.553 9.6045 17.8125C8.1945 17.94 6.93 17.9955 6 18.0045C5.99735 20.7534 6.94244 23.4192 8.676 25.5525H8.6745ZM22.5075 29.1225C21.9291 26.2054 21.1103 23.3411 20.0595 20.559C17.0565 21.6495 14.664 23.244 12.8145 25.146C12.0681 25.8996 11.4057 26.732 10.839 27.6285C12.9072 29.1717 15.4195 30.0037 18 30C19.5449 30.0022 21.0755 29.7052 22.5075 29.1255V29.1225ZM25.317 27.51C27.6589 25.7096 29.2543 23.1086 29.7975 20.205C29.2875 20.0775 28.641 19.95 27.93 19.851C26.3492 19.6234 24.7452 19.6067 23.16 19.8015C24.0526 22.3197 24.7732 24.8957 25.317 27.5115V27.51ZM18 33C9.7155 33 3 26.2845 3 18C3 9.7155 9.7155 3 18 3C26.2845 3 33 9.7155 33 18C33 26.2845 26.2845 33 18 33Z" fill="white"/>
</g>
<defs>
<clipPath id="clip0_212_2054">
<rect width="36" height="36" fill="white"/>
</clipPath>
</defs>
</svg>
