<svg width="36" height="36" viewBox="0 0 36 36" fill="none" xmlns="http://www.w3.org/2000/svg">
<g clip-path="url(#clip0_212_2053)">
<path d="M22.9503 8.32505C21.8102 8.32486 20.7157 8.77223 19.9021 9.5709C19.0886 10.3696 18.6211 11.4557 18.6003 12.5956L18.5583 14.958C18.5558 15.0849 18.5266 15.2098 18.4724 15.3245C18.4183 15.4393 18.3406 15.5413 18.2442 15.6239C18.1479 15.7064 18.0352 15.7677 17.9136 15.8037C17.7919 15.8397 17.664 15.8495 17.5383 15.8326L15.1968 15.5146C12.1158 15.0946 9.16377 13.6755 6.33177 11.316C5.43477 16.281 7.18677 19.7206 11.4063 22.3741L14.0268 24.021C14.1513 24.0993 14.2547 24.2069 14.328 24.3343C14.4014 24.4618 14.4423 24.6053 14.4474 24.7523C14.4524 24.8992 14.4213 25.0452 14.3569 25.1774C14.2925 25.3096 14.1966 25.424 14.0778 25.5105L11.6898 27.2551C13.1103 27.3435 14.4588 27.2805 15.5778 27.0585C22.6548 25.6455 27.3603 20.3205 27.3603 11.5365C27.3603 10.8195 25.8423 8.32505 22.9503 8.32505ZM15.6003 12.54C15.6265 11.0941 16.0786 9.68805 16.9001 8.49788C17.7216 7.30771 18.876 6.38633 20.2186 5.8491C21.5613 5.31187 23.0326 5.18267 24.4484 5.47767C25.8641 5.77267 27.1614 6.47877 28.1778 7.50755C29.2443 7.50005 30.1518 7.77005 32.1813 6.54005C31.6788 9.00005 31.4313 10.068 30.3603 11.5365C30.3603 22.9995 23.3148 28.5735 16.1658 30C11.2638 30.9781 4.13577 29.3715 2.09277 27.2386C3.13377 27.1576 7.36377 26.703 9.80877 24.9135C7.74027 23.55 -0.493227 18.705 4.91727 5.67905C7.45677 8.64455 10.0323 10.6635 12.6423 11.7345C14.3793 12.447 14.8053 12.432 15.6018 12.5415L15.6003 12.54Z" fill="white"/>
</g>
<defs>
<clipPath id="clip0_212_2053">
<rect width="36" height="36" fill="white"/>
</clipPath>
</defs>
</svg>
