<svg width="104" height="23" viewBox="0 0 104 23" fill="none" xmlns="http://www.w3.org/2000/svg">
<path d="M11.896 22.32C9.72 22.32 7.81067 21.8507 6.168 20.912C4.52533 19.952 3.23467 18.6507 2.296 17.008C1.37867 15.3653 0.92 13.5093 0.92 11.44C0.92 9.34933 1.37867 7.49333 2.296 5.872C3.23467 4.22933 4.52533 2.93867 6.168 2C7.81067 1.04 9.72 0.559999 11.896 0.559999C14.0507 0.559999 15.9493 1.04 17.592 2C19.256 2.93867 20.5467 4.22933 21.464 5.872C22.4027 7.49333 22.872 9.34933 22.872 11.44C22.872 13.5093 22.4027 15.3653 21.464 17.008C20.5467 18.6507 19.256 19.952 17.592 20.912C15.9493 21.8507 14.0507 22.32 11.896 22.32ZM11.896 20.048C13.6027 20.048 15.096 19.6747 16.376 18.928C17.656 18.1813 18.648 17.1573 19.352 15.856C20.056 14.5333 20.408 13.0613 20.408 11.44C20.408 9.81867 20.056 8.35733 19.352 7.056C18.648 5.73333 17.656 4.69867 16.376 3.952C15.096 3.20533 13.6027 2.832 11.896 2.832C10.2107 2.832 8.71733 3.20533 7.416 3.952C6.136 4.69867 5.13333 5.73333 4.408 7.056C3.704 8.35733 3.352 9.81867 3.352 11.44C3.352 13.0613 3.704 14.5333 4.408 15.856C5.13333 17.1573 6.136 18.1813 7.416 18.928C8.71733 19.6747 10.2107 20.048 11.896 20.048ZM12.088 17.456C10.2533 17.456 8.81333 16.9227 7.768 15.856C6.72267 14.7893 6.2 13.3387 6.2 11.504C6.2 9.648 6.72267 8.18667 7.768 7.12C8.81333 6.05333 10.2533 5.52 12.088 5.52C13.4107 5.52 14.4987 5.808 15.352 6.384C16.2267 6.96 16.856 7.73867 17.24 8.72L15 9.808C14.744 9.18933 14.3813 8.73067 13.912 8.432C13.4427 8.13333 12.8453 7.984 12.12 7.984C11.1173 7.984 10.3173 8.29333 9.72 8.912C9.144 9.50933 8.856 10.3733 8.856 11.504C8.856 12.6133 9.144 13.4773 9.72 14.096C10.3173 14.7147 11.1173 15.024 12.12 15.024C12.888 15.024 13.528 14.8747 14.04 14.576C14.552 14.256 14.936 13.7547 15.192 13.072L17.336 14C16.9093 15.1307 16.2587 15.9947 15.384 16.592C14.5307 17.168 13.432 17.456 12.088 17.456ZM34.8675 22V19.504C36.8942 18.0533 38.5902 16.7733 39.9555 15.664C41.3422 14.5547 42.4515 13.5307 43.2835 12.592C44.1155 11.6533 44.7128 10.768 45.0755 9.936C45.4595 9.08267 45.6515 8.21867 45.6515 7.344C45.6515 6.21333 45.2995 5.296 44.5955 4.592C43.8915 3.888 42.9102 3.536 41.6515 3.536C40.3288 3.536 39.2728 3.984 38.4835 4.88C37.7155 5.75467 37.2782 6.96 37.1715 8.496L34.1955 7.12C34.3448 5.776 34.7395 4.61333 35.3795 3.632C36.0195 2.65067 36.8835 1.89333 37.9715 1.36C39.0808 0.826666 40.3608 0.559999 41.8115 0.559999C43.0062 0.559999 44.0515 0.730666 44.9475 1.072C45.8648 1.41333 46.6328 1.89333 47.2515 2.512C47.8702 3.10933 48.3395 3.81333 48.6595 4.624C49.0008 5.43467 49.1715 6.29867 49.1715 7.216C49.1715 8.56 48.8408 9.86133 48.1795 11.12C47.5182 12.3573 46.4728 13.6267 45.0435 14.928C43.6142 16.2293 41.7368 17.6267 39.4115 19.12V19.184C39.6675 19.1413 40.0195 19.12 40.4675 19.12C40.9155 19.0987 41.3635 19.088 41.8115 19.088C42.2595 19.0667 42.6222 19.056 42.8995 19.056H49.5555V22H34.8675ZM60.1768 22.32C57.6381 22.32 55.6434 21.4027 54.1927 19.568C52.7634 17.712 52.0487 15.0027 52.0487 11.44C52.0487 7.87733 52.7634 5.17867 54.1927 3.344C55.6434 1.488 57.6381 0.559999 60.1768 0.559999C62.7368 0.559999 64.7314 1.488 66.1608 3.344C67.6114 5.17867 68.3368 7.87733 68.3368 11.44C68.3368 15.0027 67.6114 17.712 66.1608 19.568C64.7314 21.4027 62.7368 22.32 60.1768 22.32ZM60.1768 19.408C61.2008 19.408 62.0541 19.12 62.7368 18.544C63.4408 17.9467 63.9634 17.0613 64.3048 15.888C64.6674 14.6933 64.8488 13.2107 64.8488 11.44C64.8488 9.66933 64.6674 8.19733 64.3048 7.024C63.9634 5.82933 63.4408 4.944 62.7368 4.368C62.0541 3.77067 61.2008 3.472 60.1768 3.472C59.1528 3.472 58.2888 3.77067 57.5848 4.368C56.9021 4.944 56.3901 5.82933 56.0487 7.024C55.7074 8.19733 55.5368 9.66933 55.5368 11.44C55.5368 13.2107 55.7074 14.6933 56.0487 15.888C56.3901 17.0613 56.9021 17.9467 57.5848 18.544C58.2888 19.12 59.1528 19.408 60.1768 19.408ZM71.1825 22V19.504C73.2092 18.0533 74.9052 16.7733 76.2705 15.664C77.6572 14.5547 78.7665 13.5307 79.5985 12.592C80.4305 11.6533 81.0278 10.768 81.3905 9.936C81.7745 9.08267 81.9665 8.21867 81.9665 7.344C81.9665 6.21333 81.6145 5.296 80.9105 4.592C80.2065 3.888 79.2252 3.536 77.9665 3.536C76.6438 3.536 75.5878 3.984 74.7985 4.88C74.0305 5.75467 73.5932 6.96 73.4865 8.496L70.5105 7.12C70.6598 5.776 71.0545 4.61333 71.6945 3.632C72.3345 2.65067 73.1985 1.89333 74.2865 1.36C75.3958 0.826666 76.6758 0.559999 78.1265 0.559999C79.3212 0.559999 80.3665 0.730666 81.2625 1.072C82.1798 1.41333 82.9478 1.89333 83.5665 2.512C84.1852 3.10933 84.6545 3.81333 84.9745 4.624C85.3158 5.43467 85.4865 6.29867 85.4865 7.216C85.4865 8.56 85.1558 9.86133 84.4945 11.12C83.8332 12.3573 82.7878 13.6267 81.3585 14.928C79.9292 16.2293 78.0518 17.6267 75.7265 19.12V19.184C75.9825 19.1413 76.3345 19.12 76.7825 19.12C77.2305 19.0987 77.6785 19.088 78.1265 19.088C78.5745 19.0667 78.9372 19.056 79.2145 19.056H85.8705V22H71.1825ZM88.6837 22V19.504C90.7104 18.0533 92.4064 16.7733 93.7717 15.664C95.1584 14.5547 96.2677 13.5307 97.0997 12.592C97.9317 11.6533 98.5291 10.768 98.8917 9.936C99.2757 9.08267 99.4677 8.21867 99.4677 7.344C99.4677 6.21333 99.1157 5.296 98.4117 4.592C97.7077 3.888 96.7264 3.536 95.4677 3.536C94.1451 3.536 93.0891 3.984 92.2997 4.88C91.5317 5.75467 91.0944 6.96 90.9877 8.496L88.0117 7.12C88.1611 5.776 88.5557 4.61333 89.1957 3.632C89.8357 2.65067 90.6997 1.89333 91.7877 1.36C92.8971 0.826666 94.1771 0.559999 95.6277 0.559999C96.8224 0.559999 97.8677 0.730666 98.7637 1.072C99.6811 1.41333 100.449 1.89333 101.068 2.512C101.686 3.10933 102.156 3.81333 102.476 4.624C102.817 5.43467 102.988 6.29867 102.988 7.216C102.988 8.56 102.657 9.86133 101.996 11.12C101.334 12.3573 100.289 13.6267 98.8597 14.928C97.4304 16.2293 95.5531 17.6267 93.2277 19.12V19.184C93.4837 19.1413 93.8357 19.12 94.2837 19.12C94.7317 19.0987 95.1797 19.088 95.6277 19.088C96.0757 19.0667 96.4384 19.056 96.7157 19.056H103.372V22H88.6837Z" fill="white"/>
</svg>
